<?xml version="1.0" encoding="UTF-8"?>
<svg width="54px" height="54px" viewBox="0 0 54 54" version="1.1" xmlns="http://www.w3.org/2000/svg" xmlns:xlink="http://www.w3.org/1999/xlink">
    <title>Ball Logo</title>
    <g id="Page-1" stroke="none" stroke-width="1" fill="none" fill-rule="evenodd">
        <g id="Web" transform="translate(-35.000000, -36.000000)">
            <g id="Ball-Logo" transform="translate(35.000000, 36.000000)">
                <g id="Group-61">
                    <rect id="Rectangle-Copy" fill="#E0FAC5" x="0" y="0" width="54" height="54" rx="16"></rect>
                    <rect id="Rectangle-Copy-52" fill="#2E2E2E" x="23" y="23" width="4" height="4"></rect>
                    <rect id="Rectangle-Copy-110" fill="#2E2E2E" x="23" y="11" width="4" height="4"></rect>
                    <rect id="Rectangle-Copy-53" fill="#2E2E2E" x="27" y="23" width="4" height="4"></rect>
                    <rect id="Rectangle-Copy-111" fill="#2E2E2E" x="27" y="11" width="4" height="4"></rect>
                    <rect id="Rectangle-Copy-78" fill="#2E2E2E" x="39" y="23" width="4" height="4"></rect>
                    <rect id="Rectangle-Copy-76" fill="#2E2E2E" x="11" y="23" width="4" height="4"></rect>
                    <rect id="Rectangle-Copy-54" fill="#2E2E2E" x="27" y="27" width="4" height="4"></rect>
                    <rect id="Rectangle-Copy-82" fill="#2E2E2E" x="27" y="39" width="4" height="4"></rect>
                    <rect id="Rectangle-Copy-79" fill="#2E2E2E" x="39" y="27" width="4" height="4"></rect>
                    <rect id="Rectangle-Copy-77" fill="#2E2E2E" x="11" y="27" width="4" height="4"></rect>
                    <rect id="Rectangle-Copy-63" fill="#2E2E2E" x="23" y="27" width="4" height="4"></rect>
                    <rect id="Rectangle-Copy-83" fill="#2E2E2E" x="23" y="39" width="4" height="4"></rect>
                    <rect id="Rectangle-Copy-64" fill="#FFFFFF" x="19" y="23" width="4" height="4"></rect>
                    <rect id="Rectangle-Copy-108" fill="#FFFFFF" x="15" y="23" width="4" height="4"></rect>
                    <rect id="Rectangle-Copy-65" fill="#FFFFFF" x="19" y="19" width="4" height="4"></rect>
                    <rect id="Rectangle-Copy-89" fill="#FFFFFF" x="19" y="15" width="4" height="4"></rect>
                    <rect id="Rectangle-Copy-88" fill="#FFFFFF" x="15" y="19" width="4" height="4"></rect>
                    <rect id="Rectangle-Copy-66" fill="#FFFFFF" x="23" y="19" width="4" height="4"></rect>
                    <rect id="Rectangle-Copy-80" fill="#FFFFFF" x="23" y="15" width="4" height="4"></rect>
                    <rect id="Rectangle-Copy-67" fill="#FFFFFF" x="27" y="19" width="4" height="4"></rect>
                    <rect id="Rectangle-Copy-81" fill="#FFFFFF" x="27" y="15" width="4" height="4"></rect>
                    <rect id="Rectangle-Copy-68" fill="#FFFFFF" x="31" y="19" width="4" height="4"></rect>
                    <rect id="Rectangle-Copy-91" fill="#FFFFFF" x="35" y="19" width="4" height="4"></rect>
                    <rect id="Rectangle-Copy-90" fill="#FFFFFF" x="31" y="15" width="4" height="4"></rect>
                    <rect id="Rectangle-Copy-69" fill="#FFFFFF" x="31" y="23" width="4" height="4"></rect>
                    <rect id="Rectangle-Copy-106" fill="#FFFFFF" x="35" y="23" width="4" height="4"></rect>
                    <rect id="Rectangle-Copy-70" fill="#FFFFFF" x="31" y="27" width="4" height="4"></rect>
                    <rect id="Rectangle-Copy-107" fill="#FFFFFF" x="35" y="27" width="4" height="4"></rect>
                    <rect id="Rectangle-Copy-71" fill="#FFFFFF" x="31" y="31" width="4" height="4"></rect>
                    <rect id="Rectangle-Copy-85" fill="#FFFFFF" x="31" y="35" width="4" height="4"></rect>
                    <rect id="Rectangle-Copy-84" fill="#FFFFFF" x="35" y="31" width="4" height="4"></rect>
                    <rect id="Rectangle-Copy-72" fill="#FFFFFF" x="27" y="31" width="4" height="4"></rect>
                    <rect id="Rectangle-Copy-104" fill="#FFFFFF" x="27" y="35" width="4" height="4"></rect>
                    <rect id="Rectangle-Copy-73" fill="#FFFFFF" x="23" y="31" width="4" height="4"></rect>
                    <rect id="Rectangle-Copy-105" fill="#FFFFFF" x="23" y="35" width="4" height="4"></rect>
                    <rect id="Rectangle-Copy-74" fill="#FFFFFF" x="19" y="31" width="4" height="4"></rect>
                    <rect id="Rectangle-Copy-92" fill="#FFFFFF" x="15" y="35" width="4" height="4"></rect>
                    <rect id="Rectangle-Copy-93" fill="#EBEAEA" x="19" y="39" width="4" height="4"></rect>
                    <rect id="Rectangle-Copy-94" fill="#FFFFFF" x="11" y="31" width="4" height="4"></rect>
                    <rect id="Rectangle-Copy-95" fill="#FFFFFF" x="11" y="19" width="4" height="4"></rect>
                    <rect id="Rectangle-Copy-96" fill="#FFFFFF" x="15" y="15" width="4" height="4"></rect>
                    <rect id="Rectangle-Copy-97" fill="#FFFFFF" x="19" y="11" width="4" height="4"></rect>
                    <rect id="Rectangle-Copy-98" fill="#FFFFFF" x="31" y="11" width="4" height="4"></rect>
                    <rect id="Rectangle-Copy-99" fill="#FFFFFF" x="35" y="15" width="4" height="4"></rect>
                    <rect id="Rectangle-Copy-100" fill="#EBEAEA" x="39" y="19" width="4" height="4"></rect>
                    <rect id="Rectangle-Copy-101" fill="#EBEAEA" x="39" y="31" width="4" height="4"></rect>
                    <rect id="Rectangle-Copy-102" fill="#EBEAEA" x="35" y="35" width="4" height="4"></rect>
                    <rect id="Rectangle-Copy-103" fill="#EBEAEA" x="31" y="39" width="4" height="4"></rect>
                    <rect id="Rectangle-Copy-87" fill="#FFFFFF" x="15" y="31" width="4" height="4"></rect>
                    <rect id="Rectangle-Copy-86" fill="#FFFFFF" x="19" y="35" width="4" height="4"></rect>
                    <rect id="Rectangle-Copy-75" fill="#FFFFFF" x="19" y="27" width="4" height="4"></rect>
                    <rect id="Rectangle-Copy-109" fill="#FFFFFF" x="15" y="27" width="4" height="4"></rect>
                </g>
                <g id="Group-33" transform="translate(11.000000, 11.000000)"></g>
            </g>
        </g>
    </g>
</svg>