<?xml version="1.0" encoding="UTF-8"?>
<svg width="33px" height="32px" viewBox="0 0 33 32" version="1.1" xmlns="http://www.w3.org/2000/svg" xmlns:xlink="http://www.w3.org/1999/xlink">
    <title>instagram@1x</title>
    <g id="Page-1" stroke="none" stroke-width="1" fill="none" fill-rule="evenodd">
        <g id="Web" transform="translate(-1509.000000, -7020.000000)" fill="#000000" fill-rule="nonzero">
            <g id="Group-6" transform="translate(242.000000, 6966.000000)">
                <g id="instagram" transform="translate(1267.200000, 54.000000)">
                    <path d="M16.0035694,7.79560415 C11.463246,7.79560415 7.8010039,11.4586634 7.8010039,16 C7.8010039,20.5413366 11.463246,24.2043958 16.0035694,24.2043958 C20.5438929,24.2043958 24.206135,20.5413366 24.206135,16 C24.206135,11.4586634 20.5438929,7.79560415 16.0035694,7.79560415 Z M16.0035694,21.3339284 C13.0694925,21.3339284 10.670831,18.9418721 10.670831,16 C10.670831,13.0581279 13.0623536,10.6660716 16.0035694,10.6660716 C18.9447853,10.6660716 21.3363079,13.0581279 21.3363079,16 C21.3363079,18.9418721 18.9376464,21.3339284 16.0035694,21.3339284 L16.0035694,21.3339284 Z M26.4548801,7.46000223 C26.4548801,8.52393172 25.5982153,9.37364722 24.541662,9.37364722 C23.4779699,9.37364722 22.6284439,8.51679125 22.6284439,7.46000223 C22.6284439,6.40321321 23.4851088,5.54635725 24.541662,5.54635725 C25.5982153,5.54635725 26.4548801,6.40321321 26.4548801,7.46000223 Z M31.8875627,9.40220908 C31.7662019,6.83878166 31.1808143,4.56811335 29.3032906,2.69731117 C27.4329057,0.826508981 25.162744,0.24099074 22.5998885,0.112462345 C19.9585053,-0.0374874484 12.0414947,-0.0374874484 9.40011154,0.112462345 C6.84439487,0.233850273 4.57423313,0.819368515 2.69670943,2.6901707 C0.819185722,4.56097289 0.240936977,6.83164119 0.112437256,9.39506862 C-0.0374790853,12.0370412 -0.0374790853,19.9558184 0.112437256,22.5977909 C0.233798104,25.1612183 0.819185722,27.4318866 2.69670943,29.3026888 C4.57423313,31.173491 6.837256,31.7590093 9.40011154,31.8875377 C12.0414947,32.0374874 19.9585053,32.0374874 22.5998885,31.8875377 C25.162744,31.7661497 27.4329057,31.1806315 29.3032906,29.3026888 C31.1736754,27.4318866 31.759063,25.1612183 31.8875627,22.5977909 C32.0374791,19.9558184 32.0374791,12.0441816 31.8875627,9.40220908 Z M28.4751813,25.4325561 C27.9183491,26.8320875 26.8403793,27.9102979 25.4340212,28.4743947 C23.3280535,29.3098293 18.3308422,29.1170367 16.0035694,29.1170367 C13.6762967,29.1170367 8.67194646,29.3026888 6.57311768,28.4743947 C5.17389849,27.9174384 4.09592861,26.8392279 3.53195761,25.4325561 C2.69670943,23.3261185 2.88945901,18.327792 2.88945901,16 C2.88945901,13.672208 2.7038483,8.66674105 3.53195761,6.56744394 C4.08878974,5.16791253 5.16675962,4.08970211 6.57311768,3.52560527 C8.67908533,2.6901707 13.6762967,2.88296329 16.0035694,2.88296329 C18.3308422,2.88296329 23.3351924,2.69731117 25.4340212,3.52560527 C26.8332404,4.08256164 27.9112103,5.16077206 28.4751813,6.56744394 C29.3104294,8.67388151 29.1176799,13.672208 29.1176799,16 C29.1176799,18.327792 29.3104294,23.333259 28.4751813,25.4325561 Z" id="Shape"></path>
                </g>
            </g>
        </g>
    </g>
</svg>