<?xml version="1.0" encoding="UTF-8"?>
<svg width="32px" height="32px" viewBox="0 0 32 32" version="1.1" xmlns="http://www.w3.org/2000/svg" xmlns:xlink="http://www.w3.org/1999/xlink">
    <title>Opensea Icon</title>
    <g id="Page-1" stroke="none" stroke-width="1" fill="none" fill-rule="evenodd">
        <g id="Web" transform="translate(-1614.000000, -42.000000)" fill="#000000">
            <g id="Opensea-Icon" transform="translate(1614.000000, 42.000000)">
                <path d="M16,32 C24.832,32 32,24.8319981 32,16 C32,7.16799808 24.832,0 16,0 C7.168,0 0,7.16799808 0,16 C0,24.8319981 7.168,32 16,32 Z M26.431968,17.7599981 L26.431968,18.7839981 C26.431968,18.8479981 26.399968,18.8799981 26.335968,18.9119981 C26.015968,19.0399981 24.895968,19.5519981 24.447968,20.1919981 C24.184864,20.5546541 23.935968,20.9520941 23.686176,21.3509421 L23.686176,21.3510061 C22.812,22.7469101 21.92704,24.1599981 20.383968,24.1599981 L12.031968,24.1599981 C9.087968,24.1599981 6.687968,21.7599981 6.687968,18.7839981 L6.687968,18.6879981 C6.687968,18.6239981 6.751968,18.5599981 6.815968,18.5599981 L11.519968,18.5599981 C11.615968,18.5599981 11.679968,18.6559981 11.679968,18.7199981 C11.647968,19.0079981 11.711968,19.3279981 11.839968,19.6159981 C12.127968,20.1919981 12.703968,20.5119981 13.311968,20.5119981 L15.615968,20.5119981 L15.615968,18.7199981 L13.343968,18.7199981 C13.215968,18.7199981 13.151968,18.5919981 13.215968,18.4959981 C13.247968,18.4639981 13.279968,18.4319981 13.311968,18.3679981 C13.535968,18.0479981 13.823968,17.5999981 14.143968,17.0559981 C14.367968,16.7039981 14.559968,16.2879981 14.719968,15.9039981 L14.72,15.9039341 C14.752,15.8399661 14.783968,15.7759661 14.815968,15.6799981 C14.836064,15.5996461 14.868736,15.5193261 14.898208,15.4468781 C14.915712,15.4039341 14.932064,15.3637421 14.943968,15.3279981 L15.039968,15.0399981 C15.103968,14.7199981 15.135968,14.3679981 15.135968,13.9839981 C15.135968,13.8559981 15.135968,13.6959981 15.103968,13.5359981 C15.103968,13.4559981 15.095968,13.3759981 15.087968,13.2959981 C15.079968,13.2159981 15.071968,13.1359981 15.071968,13.0559981 C15.071968,12.9279981 15.039968,12.7679981 15.007968,12.6399981 C14.975968,12.4159981 14.943968,12.2239981 14.879968,11.9999981 L14.847968,11.9359981 C14.842784,11.9152301 14.837568,11.8935981 14.832256,11.8713901 L14.832224,11.8713261 C14.804736,11.7568301 14.773568,11.6271981 14.719968,11.5199981 C14.591968,11.0719981 14.431968,10.6239981 14.271968,10.2399981 L14.079968,9.75999808 L14.079904,9.75987008 C13.983936,9.53593408 13.887936,9.31196608 13.791968,9.11999808 C13.775968,9.07199808 13.751968,9.03199808 13.727968,8.99199808 C13.703968,8.95199808 13.679968,8.91199808 13.663968,8.86399808 C13.647968,8.81599808 13.623968,8.76799808 13.599968,8.71999808 C13.575968,8.67199808 13.551968,8.62399808 13.535968,8.57599808 L13.439968,8.38399808 L13.151968,7.87199808 C13.119968,7.80799808 13.183968,7.71199808 13.247968,7.74399808 L15.007968,8.22399808 L15.231968,8.28799808 L15.487968,8.35199808 L15.583968,8.38399808 L15.583968,7.32799808 C15.583968,6.81599808 15.999968,6.39999808 16.479968,6.39999808 C16.735968,6.39999808 16.959968,6.49599808 17.119968,6.65599808 C17.279968,6.81599808 17.375968,7.03999808 17.375968,7.29599808 L17.375968,8.83199808 L17.567968,8.89599808 C17.567968,8.89599808 17.599968,8.89599808 17.599968,8.92799808 C17.631968,8.95999808 17.695968,9.02399808 17.791968,9.08799808 L17.792,9.08803008 C17.856,9.15203008 17.92,9.21599808 18.015968,9.27999808 C18.175968,9.40799808 18.399968,9.59999808 18.623968,9.79199808 C18.646592,9.81462208 18.669248,9.83324608 18.690464,9.85071808 L18.69056,9.85081408 C18.72928,9.88268608 18.763296,9.91065408 18.783968,9.95199808 C19.071968,10.2079981 19.391968,10.5279981 19.711968,10.8799981 C19.759968,10.9279981 19.799968,10.9759981 19.839968,11.0239981 C19.879968,11.0719981 19.919968,11.1199981 19.967968,11.1679981 C20.015968,11.2159981 20.055968,11.2719981 20.095968,11.3279981 C20.135968,11.3839981 20.175968,11.4399981 20.223968,11.4879981 C20.27184,11.5518381 20.32768,11.6236461 20.383552,11.6954541 L20.383904,11.6959341 C20.439936,11.7679341 20.495968,11.8399661 20.543968,11.9039981 C20.555872,11.9278061 20.572192,11.9516141 20.589664,11.9770861 L20.589696,11.9771181 C20.6192,12.0200941 20.651872,12.0677421 20.671968,12.1279981 C20.735968,12.2239981 20.791968,12.3199981 20.847968,12.4159981 C20.903968,12.5119981 20.959968,12.6079981 21.023968,12.7039981 C21.039968,12.7519981 21.063968,12.7999981 21.087968,12.8479981 C21.111968,12.8959981 21.135968,12.9439981 21.151968,12.9919981 C21.279968,13.2479981 21.375968,13.5039981 21.407968,13.7919981 C21.439968,13.8559981 21.439968,13.9199981 21.439968,13.9519981 C21.471968,14.0159981 21.471968,14.1119981 21.471968,14.2079981 C21.502368,14.4815021 21.47504,14.7261421 21.4448,14.9967341 L21.4448,14.9967661 L21.439968,15.0399981 C21.423968,15.1039981 21.407968,15.1599981 21.391968,15.2159981 C21.375968,15.2719981 21.359968,15.3279981 21.343968,15.3919981 C21.336416,15.4146541 21.328864,15.4391021 21.320896,15.4648941 C21.295072,15.5484141 21.264864,15.6462061 21.215968,15.7439981 C21.119968,15.9679981 20.991968,16.1919981 20.863968,16.4159981 C20.831968,16.4799981 20.767968,16.5759981 20.703968,16.6719981 C20.684864,16.7006381 20.66576,16.7264621 20.64752,16.7511021 L20.647488,16.7511341 C20.604608,16.8090861 20.5664,16.8606701 20.543968,16.9279981 C20.512,16.9759341 20.472064,17.0239021 20.432096,17.0718381 L20.431968,17.0719981 L20.43184,17.0721581 C20.391872,17.1200941 20.351936,17.1680621 20.319968,17.2159981 L20.319936,17.2160301 C20.255936,17.3120301 20.191968,17.4079981 20.095968,17.5039981 C20.047968,17.5679981 19.991968,17.6319981 19.935968,17.6960301 C19.879968,17.7599981 19.823968,17.8239981 19.775968,17.8879981 C19.755712,17.9082541 19.735424,17.9317421 19.714176,17.9563821 C19.668224,18.0095661 19.617568,18.0682541 19.551968,18.1119981 C19.531712,18.1322541 19.511424,18.1557421 19.490144,18.1803821 C19.444224,18.2335981 19.393568,18.2922541 19.327968,18.3359981 C19.231968,18.4319981 19.135968,18.5279981 19.039968,18.5919981 L18.847968,18.7519981 C18.815968,18.7839981 18.783968,18.7839981 18.751968,18.7839981 L17.343968,18.7839981 L17.343968,20.5759981 L19.103968,20.5759981 C19.487968,20.5759981 19.871968,20.4479981 20.159968,20.1919981 C20.183456,20.1685101 20.227968,20.1278061 20.289824,20.0712621 L20.289888,20.0712301 C20.480928,19.8966061 20.837056,19.5710701 21.247968,19.1359981 C21.279968,19.1039981 21.279968,19.1039981 21.311968,19.1039981 L26.175968,17.6959981 C26.367968,17.5999981 26.431968,17.6639981 26.431968,17.7599981 Z M7.904032,16.5439981 L7.968032,16.4479981 L12.128032,9.95199808 C12.192032,9.85599808 12.320032,9.85599808 12.384032,9.98399808 C13.088032,11.5519981 13.664032,13.4719981 13.408032,14.6879981 C13.280032,15.1999981 12.960032,15.8719981 12.576032,16.4799981 C12.544032,16.5759981 12.480032,16.6719981 12.416032,16.7359981 C12.384032,16.7679981 12.352032,16.7999981 12.288032,16.7999981 L8.000032,16.7999981 C7.904032,16.7679981 7.840032,16.6399981 7.904032,16.5439981 Z" id="Shape"></path>
            </g>
        </g>
    </g>
</svg>