<?xml version="1.0" encoding="UTF-8"?>
<svg width="28px" height="23px" viewBox="0 0 28 23" version="1.1" xmlns="http://www.w3.org/2000/svg" xmlns:xlink="http://www.w3.org/1999/xlink">
    <title>twitter.1@1x</title>
    <g id="Page-1" stroke="none" stroke-width="1" fill="none" fill-rule="evenodd">
        <g id="Web" transform="translate(-1387.000000, -7025.000000)" fill="#000000" fill-rule="nonzero">
            <g id="Group-6" transform="translate(242.000000, 6966.000000)">
                <g id="twitter.1" transform="translate(1145.200000, 59.000000)">
                    <path d="M27.528409,2.20960699 C27.3374995,2.00873362 27.14659,2.00873362 26.9556806,2.10917031 C26.6693164,2.20960699 26.2874975,2.41048035 25.9056786,2.61135371 C26.2874975,2.00873362 26.5738617,1.30567686 26.6693164,0.703056769 C26.7647711,0.502183406 26.6693164,0.301310044 26.4784069,0.200873362 C26.2874975,0.100436681 26.096588,0.100436681 25.9056786,0.200873362 C24.9511313,0.80349345 23.6147651,1.30567686 23.1374915,1.40611354 C22.0874895,0.502183406 20.7511233,0 19.5102118,0 C17.8874814,0 16.3602058,0.703056769 15.1192943,1.90829694 C13.9738376,3.11353712 13.3056545,4.72052402 13.3056545,6.52838428 C8.62837285,6.02620087 5.86018575,3.01310044 3.66472701,0.200873362 C3.56927228,0.100436681 3.37836282,0 3.2829081,0 C3.09199864,0 2.99654391,0.100436681 2.90108919,0.200873362 C1.564723,2.51091703 1.85108718,4.8209607 2.13745136,5.92576419 C2.32836082,6.72925764 2.614725,7.33187773 2.99654391,7.93449782 C2.51927027,7.73362445 2.13745136,7.53275109 1.75563245,7.13100437 C1.66017772,7.03056769 1.37381354,7.03056769 1.27835881,7.03056769 C1.08744936,7.13100437 0.99199463,7.33187773 0.99199463,7.53275109 C0.99199463,10.4454148 2.90108919,12.3537118 4.42836483,13.3580786 C4.14200065,13.2576419 3.85563646,13.2576419 3.47381755,13.0567686 C3.2829081,12.9563319 3.09199864,13.0567686 2.99654391,13.1572052 C2.90108919,13.2576419 2.80563446,13.558952 2.90108919,13.6593886 C3.76018174,15.768559 5.66927629,17.3755459 7.7692803,17.7772926 C5.86018575,18.9825328 2.80563446,19.6855895 0.514720991,19.4847162 C0.323811536,19.4847162 0.0374473522,19.5851528 0.0374473522,19.7860262 C-0.0580073756,19.9868996 0.0374473522,20.2882096 0.228356808,20.3886463 C3.09199864,22.0960699 6.14654993,23 9.10564649,23 L9.10564649,23 C13.7829282,23 18.4602098,20.790393 21.7056706,16.8733624 C24.5693124,13.558952 26.096588,9.34061135 25.8102239,5.62445415 C26.2874975,5.22270742 26.5738617,4.51965066 26.9556806,3.81659389 C27.14659,3.51528384 27.3374995,3.11353712 27.528409,2.81222707 C27.6238637,2.61135371 27.6238637,2.31004367 27.528409,2.20960699 Z" id="Path"></path>
                </g>
            </g>
        </g>
    </g>
</svg>