<?xml version="1.0" encoding="UTF-8"?>
<svg width="32px" height="27px" viewBox="0 0 32 27" version="1.1" xmlns="http://www.w3.org/2000/svg" xmlns:xlink="http://www.w3.org/1999/xlink">
    <title>Twitter Icon</title>
    <g id="Page-1" stroke="none" stroke-width="1" fill="none" fill-rule="evenodd">
        <g id="Web" transform="translate(-1756.000000, -45.000000)" fill="#000000" fill-rule="nonzero">
            <g id="Group-3" transform="translate(1756.000000, 43.000000)">
                <g id="Twitter-Icon" transform="translate(0.000000, 2.000000)">
                    <path d="M28.7253333,6.53800973 C28.7392381,6.82505644 28.7426667,7.11212234 28.7426667,7.39217961 C28.7426667,16.1439069 22.1413333,26.2295082 10.0636,26.2295082 C6.49478095,26.2354352 3.00020952,25.2021899 0,23.2537901 C0.510472381,23.3167718 1.03483619,23.34135 1.56614286,23.34135 C4.64285714,23.34135 7.47302857,22.2875589 9.71980952,20.5092865 C8.35062857,20.482212 7.02392381,20.0252108 5.92464762,19.2018405 C4.82535238,18.378547 4.00824762,17.2300337 3.5872,15.9163664 C4.57047619,16.1048506 5.58342857,16.0653526 6.54931429,15.8008488 C5.06321905,15.497903 3.72678095,14.6861306 2.76664762,13.5032078 C1.80651048,12.3202851 1.28176,10.8390058 1.28138857,9.31054792 L1.28138857,9.23003505 C2.16689524,9.72363479 3.18089524,10.0246988 4.25740952,10.0597035 C2.86419048,9.12477115 1.87793333,7.68857756 1.5003181,6.04487083 C1.12270476,4.40116411 1.38227238,2.67412187 2.22594286,1.2169427 C3.87525714,3.26134926 5.93209524,4.93380098 8.26329524,6.12599815 C10.5944762,7.31821454 13.1480381,8.00360118 15.7586476,8.13782129 C15.4267619,6.71762274 15.5696,5.2266658 16.1649905,3.89673459 C16.7603619,2.56682259 17.7749143,1.47246016 19.0508571,0.783782332 C20.3268571,0.0951045085 21.7929524,-0.149297641 23.2209524,0.0885701589 C24.6489524,0.326439303 25.9588571,1.03324932 26.9474286,2.09912598 C28.4169524,1.80603074 29.8260952,1.26264474 31.1144762,0.49230003 C30.6247619,2.02608259 29.5992381,3.32847852 28.2287619,4.15753253 C29.5304762,3.99948307 30.8015238,3.64668963 32,3.11082688 C31.119619,4.44071968 30.0106667,5.60134921 28.7253333,6.53800973 Z" id="Path"></path>
                </g>
            </g>
        </g>
    </g>
</svg>